<svg xmlns="http://www.w3.org/2000/svg" version="1.1" xmlns:xlink="http://www.w3.org/1999/xlink" xmlns:svgjs="http://svgjs.dev/svgjs" viewBox="0 0 800 800" opacity="0.55"><defs><linearGradient x1="50%" y1="0%" x2="50%" y2="100%" id="vvvortex-grad"><stop stop-color="hsl(37, 91%, 55%)" stop-opacity="1" offset="0%"></stop><stop stop-color="hsl(0, 0%, 80%)" stop-opacity="1" offset="100%"></stop></linearGradient></defs><g stroke="url(#vvvortex-grad)" fill="none" stroke-linecap="square"><circle r="338" cx="400" cy="400" stroke-width="12" stroke-dasharray="44 34" stroke-dashoffset="25" transform="rotate(152, 400, 400)" opacity="0.85"></circle><circle r="325" cx="400" cy="400" stroke-width="11" stroke-dasharray="51 36" stroke-dashoffset="25" transform="rotate(233, 400, 400)" opacity="0.17"></circle><circle r="312" cx="400" cy="400" stroke-width="11" stroke-dasharray="41 43" stroke-dashoffset="25" transform="rotate(163, 400, 400)" opacity="0.49"></circle><circle r="299" cx="400" cy="400" stroke-width="11" stroke-dasharray="26 39" stroke-dashoffset="25" transform="rotate(3, 400, 400)" opacity="0.28"></circle><circle r="286" cx="400" cy="400" stroke-width="11" stroke-dasharray="17 31" stroke-dashoffset="25" transform="rotate(223, 400, 400)" opacity="0.80"></circle><circle r="273" cx="400" cy="400" stroke-width="10" stroke-dasharray="35 29" stroke-dashoffset="25" transform="rotate(292, 400, 400)" opacity="0.97"></circle><circle r="260" cx="400" cy="400" stroke-width="10" stroke-dasharray="29 26" stroke-dashoffset="25" transform="rotate(327, 400, 400)" opacity="0.50"></circle><circle r="247" cx="400" cy="400" stroke-width="10" stroke-dasharray="33 36" stroke-dashoffset="25" transform="rotate(21, 400, 400)" opacity="0.42"></circle><circle r="234" cx="400" cy="400" stroke-width="10" stroke-dasharray="28 41" stroke-dashoffset="25" transform="rotate(69, 400, 400)" opacity="0.14"></circle><circle r="221" cx="400" cy="400" stroke-width="9" stroke-dasharray="28 16" stroke-dashoffset="25" transform="rotate(7, 400, 400)" opacity="0.22"></circle><circle r="208" cx="400" cy="400" stroke-width="9" stroke-dasharray="40 19" stroke-dashoffset="25" transform="rotate(189, 400, 400)" opacity="0.33"></circle><circle r="195" cx="400" cy="400" stroke-width="9" stroke-dasharray="23 22" stroke-dashoffset="25" transform="rotate(174, 400, 400)" opacity="0.54"></circle><circle r="182" cx="400" cy="400" stroke-width="9" stroke-dasharray="24 48" stroke-dashoffset="25" transform="rotate(342, 400, 400)" opacity="0.78"></circle><circle r="169" cx="400" cy="400" stroke-width="8" stroke-dasharray="45 20" stroke-dashoffset="25" transform="rotate(279, 400, 400)" opacity="0.70"></circle><circle r="156" cx="400" cy="400" stroke-width="8" stroke-dasharray="45 20" stroke-dashoffset="25" transform="rotate(171, 400, 400)" opacity="0.67"></circle><circle r="143" cx="400" cy="400" stroke-width="8" stroke-dasharray="19 25" stroke-dashoffset="25" transform="rotate(221, 400, 400)" opacity="0.97"></circle><circle r="130" cx="400" cy="400" stroke-width="8" stroke-dasharray="49 19" stroke-dashoffset="25" transform="rotate(48, 400, 400)" opacity="0.84"></circle><circle r="117" cx="400" cy="400" stroke-width="7" stroke-dasharray="30 32" stroke-dashoffset="25" transform="rotate(115, 400, 400)" opacity="0.93"></circle><circle r="104" cx="400" cy="400" stroke-width="7" stroke-dasharray="40 12" stroke-dashoffset="25" transform="rotate(120, 400, 400)" opacity="0.58"></circle><circle r="91" cx="400" cy="400" stroke-width="7" stroke-dasharray="43 12" stroke-dashoffset="25" transform="rotate(289, 400, 400)" opacity="0.52"></circle><circle r="78" cx="400" cy="400" stroke-width="7" stroke-dasharray="52 21" stroke-dashoffset="25" transform="rotate(351, 400, 400)" opacity="0.30"></circle><circle r="65" cx="400" cy="400" stroke-width="6" stroke-dasharray="41 45" stroke-dashoffset="25" transform="rotate(263, 400, 400)" opacity="0.88"></circle><circle r="52" cx="400" cy="400" stroke-width="6" stroke-dasharray="44 53" stroke-dashoffset="25" transform="rotate(283, 400, 400)" opacity="0.47"></circle><circle r="39" cx="400" cy="400" stroke-width="6" stroke-dasharray="18 54" stroke-dashoffset="25" transform="rotate(307, 400, 400)" opacity="0.08"></circle><circle r="26" cx="400" cy="400" stroke-width="6" stroke-dasharray="54 33" stroke-dashoffset="25" transform="rotate(315, 400, 400)" opacity="0.55"></circle><circle r="13" cx="400" cy="400" stroke-width="6" stroke-dasharray="39 43" stroke-dashoffset="25" transform="rotate(317, 400, 400)" opacity="0.86"></circle></g></svg>